<svg xmlns="http://www.w3.org/2000/svg"  viewBox="0 0 50 50" width="50px" height="50px"><path d="M 20.8125 5 C 20.335938 5.089844 19.992188 5.511719 20 6 L 20 10 C 20 10.550781 20.449219 11 21 11 L 25 11 L 25 14 L 20 14 C 19.25 14 18.527344 14.304688 18 14.84375 C 17.980469 14.851563 17.957031 14.863281 17.9375 14.875 L 13.53125 20 L 11 20 C 10.164063 20 9.4375 20.375 8.90625 20.90625 C 8.375 21.4375 8 22.164063 8 23 L 8 26 L 6 26 L 6 21 C 6 20.449219 5.550781 20 5 20 L 1 20 C 0.96875 20 0.9375 20 0.90625 20 C 0.390625 20.046875 -0.00390625 20.480469 0 21 L 0 37 C 0 37.550781 0.449219 38 1 38 L 5 38 C 5.550781 38 6 37.550781 6 37 L 6 32 L 8 32 L 8 35 C 8 35.839844 8.371094 36.5625 8.90625 37.09375 C 9.441406 37.625 10.171875 38 11 38 L 13.53125 38 L 17.9375 43.125 C 17.957031 43.136719 17.980469 43.148438 18 43.15625 C 18.523438 43.691406 19.25 44 20 44 L 32.84375 44 C 33.59375 44 34.320313 43.691406 34.84375 43.15625 L 42.1875 35.6875 C 42.714844 35.152344 43 34.433594 43 33.6875 L 43 32 L 44 32 L 44 36 C 44.003906 36.550781 44.449219 36.996094 45 37 L 49 37 C 49.550781 36.996094 49.996094 36.550781 50 36 L 50 20 C 49.996094 19.449219 49.550781 19.003906 49 19 L 45 19 C 44.449219 19.003906 44.003906 19.449219 44 20 L 44 24 L 43 24 L 43 16.84375 C 43 15.292969 41.738281 14 40.1875 14 L 31 14 L 31 11 L 35 11 C 35.550781 11 36 10.550781 36 10 L 36 6 C 36 5.449219 35.550781 5 35 5 L 21 5 C 20.96875 5 20.9375 5 20.90625 5 C 20.875 5 20.84375 5 20.8125 5 Z M 22 7 L 34 7 L 34 9 L 30 9 C 29.449219 9 29 9.449219 29 10 L 29 14 L 27 14 L 27 10 C 27 9.449219 26.550781 9 26 9 L 22 9 Z M 20 16 L 40.1875 16 C 40.632813 16 41 16.359375 41 16.84375 L 41 25 C 41.003906 25.550781 41.449219 25.996094 42 26 L 45 26 C 45.550781 25.996094 45.996094 25.550781 46 25 L 46 21 L 48 21 L 48 35 L 46 35 L 46 31 C 45.996094 30.449219 45.550781 30.003906 45 30 L 42 30 C 41.449219 30.003906 41.003906 30.449219 41 31 L 41 33.6875 C 41 33.917969 40.902344 34.125 40.75 34.28125 L 33.40625 41.75 C 33.253906 41.90625 33.050781 42 32.84375 42 L 20 42 C 19.792969 42 19.589844 41.90625 19.4375 41.75 L 14.75 36.34375 C 14.5625 36.128906 14.289063 36 14 36 L 11 36 C 10.832031 36 10.558594 35.871094 10.34375 35.65625 C 10.128906 35.441406 10 35.179688 10 35 L 10 23 C 10 22.835938 10.125 22.5625 10.34375 22.34375 C 10.5625 22.125 10.835938 22 11 22 L 14 22 C 14.289063 22 14.5625 21.871094 14.75 21.65625 L 19.4375 16.25 C 19.589844 16.09375 19.792969 16 20 16 Z M 27 20 L 22 30 L 27 30 L 24 39 L 32 28 L 27 28 L 32 20 Z M 2 22 L 4 22 L 4 27 C 4 27.550781 4.449219 28 5 28 L 8 28 L 8 30 L 5 30 C 4.449219 30 4 30.449219 4 31 L 4 36 L 2 36 Z"/></svg>