<svg xmlns="http://www.w3.org/2000/svg"  viewBox="0 0 50 50" width="50px" height="50px"><path d="M 20 3 C 17.250421 3 15 5.2504209 15 8 C 15 10.749579 17.250421 13 20 13 C 22.749579 13 25 10.749579 25 8 C 25 5.2504209 22.749579 3 20 3 z M 20 5 C 21.668699 5 23 6.3313011 23 8 C 23 9.6686989 21.668699 11 20 11 C 18.331301 11 17 9.6686989 17 8 C 17 6.3313011 18.331301 5 20 5 z M 46.996094 6.9921875 A 1.0001 1.0001 0 0 0 46.378906 7.2167969 L 35.462891 15.865234 C 34.412025 15.021236 33.18438 14.897175 32.308594 15.105469 C 31.273918 15.351552 30.574219 15.945313 30.574219 15.945312 A 1.0001 1.0001 0 0 0 30.402344 17.306641 L 26.398438 20.511719 L 20.294922 15.242188 A 1.0001 1.0001 0 0 0 20.210938 15.175781 C 19.46724 14.548495 18.536609 14.129803 17.501953 14.025391 L 17.498047 14.025391 C 17.570337 14.032691 17.448977 14.016289 17.337891 14.005859 C 17.224137 13.995129 17.075798 13.984423 16.880859 14.007812 L 17 14 L 14.193359 14 C 12.477927 14 10.482667 14.877187 8.7421875 15.701172 C 7.0342851 16.509734 5.7093476 17.286469 5.6582031 17.316406 C 5.6582031 17.316406 5.6582031 17.318359 5.6582031 17.318359 C 4.9478738 17.673978 4.4060138 18.297129 4.1542969 19.050781 L 2.1972656 24.925781 C 1.7409168 26.294828 2.2203996 27.90539 3.5683594 28.634766 C 4.0248208 28.882138 4.5215365 29.001953 5.0019531 29.001953 C 6.2610957 29.001953 7.4318923 28.198001 7.8476562 26.949219 L 9.4492188 22.140625 L 11.679688 21.09375 L 11.023438 27.5 C 10.992389 27.807816 11.000858 28.104587 11.025391 28.396484 L 2.5253906 42.484375 L 2.5722656 42.412109 C 1.6050987 43.742336 1.9048677 45.635595 3.2363281 46.601562 C 3.2363281 46.601562 3.2382812 46.601562 3.2382812 46.601562 C 3.2382812 46.601562 3.2382812 46.603516 3.2382812 46.603516 C 4.0270003 47.176471 5.015012 47.308978 5.8847656 47.041016 C 6.4817644 46.856978 7.0339875 46.480393 7.4277344 45.9375 L 7.4296875 45.935547 L 15.964844 33.955078 C 16.392103 34.233058 16.777182 34.483522 17.224609 34.773438 C 18.79727 35.792459 20.03051 36.5865 20.320312 36.773438 L 22.070312 44.650391 C 22.378584 46.038358 23.61817 47 24.996094 47 C 25.184134 47 25.368953 46.982319 25.548828 46.949219 A 1.0001 1.0001 0 0 0 25.552734 46.947266 C 27.280762 46.623648 28.262525 44.864015 27.898438 43.222656 L 25.765625 33.626953 A 1.0001 1.0001 0 0 0 25.505859 33.146484 L 20.785156 28.296875 L 21.40625 23.71875 L 24.359375 26.181641 L 24.291016 26.121094 C 24.872656 26.70423 25.648157 27 26.414062 27 C 27.179969 27 27.953518 26.704224 28.535156 26.121094 L 28.466797 26.181641 L 34.050781 21.535156 L 34.154297 21.654297 A 1.0001 1.0001 0 0 0 35.546875 21.771484 C 35.546875 21.771484 36.265912 21.198857 36.693359 20.230469 C 37.009914 19.513311 37.110063 18.479609 36.677734 17.453125 L 47.621094 8.7832031 A 1.0001 1.0001 0 0 0 46.996094 6.9921875 z M 17.119141 15.992188 C 17.091201 15.995487 17.118394 15.993081 17.150391 15.996094 C 17.182391 15.999094 17.162731 15.999892 17.294922 16.013672 A 1.0001 1.0001 0 0 0 17.298828 16.015625 C 17.912223 16.077048 18.461277 16.316402 18.902344 16.675781 A 1.0001 1.0001 0 0 0 18.988281 16.757812 L 19 16.767578 C 19.68819 17.382097 20.085452 18.3 19.986328 19.296875 C 19.986328 19.296875 19.986328 19.298828 19.986328 19.298828 L 19.724609 21.228516 A 1.0001 1.0001 0 0 0 19.621094 21.992188 L 18.736328 28.509766 A 1.0001 1.0001 0 0 0 19.011719 29.341797 L 23.875 34.337891 L 25.945312 43.65625 C 26.073224 44.232891 25.687566 44.88804 25.183594 44.982422 C 25.115178 44.994684 25.05288 45 24.996094 45 C 24.540017 45 24.127213 44.692829 24.021484 44.216797 L 22.181641 35.939453 A 1.0001 1.0001 0 0 0 21.748047 35.316406 C 21.748047 35.316406 20.057577 34.226443 18.3125 33.095703 C 17.439962 32.530333 16.553596 31.953716 15.859375 31.5 C 15.165154 31.046284 14.577823 30.648841 14.595703 30.662109 C 13.248484 29.663371 12.882441 29.009288 13.013672 27.703125 L 13.013672 27.701172 L 13.849609 19.537109 A 1.0001 1.0001 0 0 0 12.429688 18.53125 L 8.2109375 20.513672 A 1.0001 1.0001 0 0 0 7.6875 21.101562 L 5.9511719 26.316406 C 5.808936 26.743624 5.4168106 27.001953 5.0019531 27.001953 C 4.8423698 27.001953 4.6850229 26.965583 4.5214844 26.876953 C 4.1174437 26.658328 3.9200988 26.079547 4.09375 25.558594 L 6.0507812 19.683594 C 6.1349022 19.431731 6.3157387 19.223967 6.5527344 19.105469 A 1.0001 1.0001 0 0 0 6.6113281 19.074219 C 6.6113281 19.074219 7.9488387 18.29128 9.5996094 17.509766 C 11.25038 16.728251 13.297792 16 14.193359 16 L 17 16 A 1.0001 1.0001 0 0 0 17.119141 15.992188 z M 33.189453 16.988281 C 33.313753 16.979611 33.439283 16.985919 33.570312 17.021484 C 33.848712 17.097044 34.149148 17.290727 34.501953 17.699219 C 35.199017 18.506306 35.073737 18.937435 34.869141 19.404297 A 1.0001 1.0001 0 0 0 34.816406 19.359375 L 32.818359 17.048828 C 32.942085 17.020603 33.065154 16.996951 33.189453 16.988281 z M 31.708984 18.824219 L 32.744141 20.021484 L 27.1875 24.644531 A 1.0001 1.0001 0 0 0 27.119141 24.707031 C 26.92078 24.905901 26.672157 25 26.414062 25 C 26.15597 25 25.907346 24.9059 25.708984 24.707031 A 1.0001 1.0001 0 0 0 25.640625 24.646484 L 21.722656 21.378906 L 21.972656 19.533203 A 1.0001 1.0001 0 0 0 21.976562 19.498047 C 21.981741 19.446307 21.980824 19.395282 21.984375 19.34375 L 25.720703 22.570312 A 1.0001 1.0001 0 0 0 27 22.59375 L 31.708984 18.824219 z M 11.917969 30.787109 C 12.306546 31.329962 12.806159 31.826112 13.404297 32.269531 C 13.559961 32.385046 13.953415 32.639001 14.291016 32.859375 L 5.8085938 44.763672 C 5.6743407 44.948778 5.4978763 45.068897 5.296875 45.130859 C 5.0054211 45.220649 4.682989 45.180099 4.4140625 44.984375 L 4.4121094 44.984375 L 4.4121094 44.982422 C 3.9555616 44.651921 3.8591392 44.044886 4.1914062 43.587891 L 4.2167969 43.552734 L 11.917969 30.787109 z"/></svg>