<svg xmlns="http://www.w3.org/2000/svg"  viewBox="0 0 50 50" width="50px" height="50px"><path d="M 14.984375 3.9863281 A 1.0001 1.0001 0 0 0 14.839844 4 L 5 4 A 1.0001 1.0001 0 0 0 4 5 L 4 14.832031 A 1.0001 1.0001 0 0 0 4 15.158203 L 4 24.832031 A 1.0001 1.0001 0 0 0 4 25.158203 L 4 34.832031 A 1.0001 1.0001 0 0 0 4 35.158203 L 4 45 A 1.0001 1.0001 0 0 0 5 46 L 14.832031 46 A 1.0001 1.0001 0 0 0 15.158203 46 L 24.832031 46 A 1.0001 1.0001 0 0 0 25.158203 46 L 34.832031 46 A 1.0001 1.0001 0 0 0 35.158203 46 L 45 46 A 1.0001 1.0001 0 0 0 46 45 L 46 35.167969 A 1.0001 1.0001 0 0 0 46 34.841797 L 46 25.167969 A 1.0001 1.0001 0 0 0 46 24.841797 L 46 15.167969 A 1.0001 1.0001 0 0 0 46 14.841797 L 46 5 A 1.0001 1.0001 0 0 0 45 4 L 35.154297 4 A 1.0001 1.0001 0 0 0 34.984375 3.9863281 A 1.0001 1.0001 0 0 0 34.839844 4 L 25.154297 4 A 1.0001 1.0001 0 0 0 24.984375 3.9863281 A 1.0001 1.0001 0 0 0 24.839844 4 L 15.154297 4 A 1.0001 1.0001 0 0 0 14.984375 3.9863281 z M 6 6 L 14 6 L 14 14 L 6 14 L 6 6 z M 16 6 L 24 6 L 24 14 L 16 14 L 16 6 z M 26 6 L 34 6 L 34 14 L 26 14 L 26 6 z M 36 6 L 44 6 L 44 14 L 36 14 L 36 6 z M 6 16 L 14 16 L 14 24 L 6 24 L 6 16 z M 16 16 L 24 16 L 24 24 L 16 24 L 16 16 z M 26 16 L 34 16 L 34 24 L 26 24 L 26 16 z M 36 16 L 44 16 L 44 24 L 36 24 L 36 16 z M 6 26 L 14 26 L 14 34 L 6 34 L 6 26 z M 16 26 L 24 26 L 24 34 L 16 34 L 16 26 z M 26 26 L 34 26 L 34 34 L 26 34 L 26 26 z M 36 26 L 44 26 L 44 34 L 36 34 L 36 26 z M 6 36 L 14 36 L 14 44 L 6 44 L 6 36 z M 16 36 L 24 36 L 24 44 L 16 44 L 16 36 z M 26 36 L 34 36 L 34 44 L 26 44 L 26 36 z M 36 36 L 44 36 L 44 44 L 36 44 L 36 36 z"/></svg>