<svg xmlns="http://www.w3.org/2000/svg"  viewBox="0 0 50 50" width="50px" height="50px"><path d="M 38 5 C 36.56133 5 34.411284 5.088505 32.494141 6.1015625 C 30.576997 7.11462 29 9.2095826 29 12.544922 C 29 16.839312 31.668835 18.860363 32.425781 19.355469 A 1.0001 1.0001 0 0 0 33.175781 19.712891 C 33.643296 20.509105 34.273816 21.258356 34.779297 21.710938 L 34.779297 21.779297 C 34.789297 22.339297 34.790234 22.840937 34.740234 23.460938 C 34.650234 23.630937 34.489531 23.779688 34.269531 23.929688 C 34.429531 24.569688 34.500234 25.27 34.490234 26 L 34.490234 26.099609 C 35.490234 25.629609 36.300156 25.030547 36.660156 24.060547 C 36.690156 23.980547 36.710703 23.890781 36.720703 23.800781 C 36.790703 23.000781 36.789297 22.399766 36.779297 21.759766 L 36.779297 21.230469 C 36.779297 20.860469 36.609297 20.539375 36.279297 20.359375 C 35.849297 20.079375 34.609297 18.569844 34.529297 17.839844 C 34.526657 17.815649 34.512049 17.797025 34.507812 17.773438 C 35.277717 15.517065 36.647883 13.403788 38.023438 11.652344 C 38.999406 12.848154 40.681981 15.146139 41.492188 17.640625 A 1.0001 1.0001 0 0 0 41.451172 17.837891 C 41.429372 18.041308 41.078712 18.775036 40.638672 19.347656 C 40.418652 19.633967 40.186813 19.897046 39.998047 20.087891 C 39.809281 20.278735 39.578268 20.42217 39.728516 20.34375 A 1.0001 1.0001 0 0 0 39.191406 21.230469 C 39.191406 22.071065 39.15813 22.784172 39.25 23.796875 A 1.0001 1.0001 0 0 0 39.671875 24.525391 C 40.119122 25.226485 40.765191 25.740815 41.484375 26.080078 C 42.37142 26.498527 43.35459 26.793438 44.291016 27.132812 C 45.227442 27.472189 46.106373 27.852906 46.755859 28.339844 C 47.405346 28.826782 47.833404 29.374022 48.025391 30.220703 A 1.0001 1.0001 0 1 0 49.974609 29.777344 C 49.671596 28.441025 48.881998 27.435171 47.955078 26.740234 C 47.028158 26.045297 45.971855 25.614078 44.972656 25.251953 C 43.973457 24.889828 43.023502 24.59491 42.337891 24.271484 C 41.666693 23.954858 41.347447 23.65497 41.234375 23.376953 C 41.192165 22.781657 41.196402 22.249384 41.201172 21.673828 C 41.263572 21.611708 41.347319 21.569496 41.419922 21.496094 C 41.673874 21.239345 41.951754 20.921471 42.224609 20.566406 C 42.437969 20.288763 42.645891 19.991201 42.835938 19.679688 A 1.0007499 1.0007499 0 0 0 43.220703 19.587891 A 1.0001754 1.0001754 0 0 0 43.257812 19.570312 A 1.0007499 1.0007499 0 0 0 43.466797 19.427734 C 44.021929 19.086048 47 17.066668 47 12.544922 C 47 9.2085441 45.417013 7.1141287 43.498047 6.1015625 C 41.607396 5.103937 39.49949 5.0047197 38.070312 5.0019531 A 1.0001 1.0001 0 0 0 38 5 z M 12.023438 6.0039062 C 9.3894375 6.0039062 7.2948281 6.7822656 5.7988281 8.3222656 C 2.8358281 11.361266 3.0003906 16.999781 3.0253906 19.800781 C 3.0293906 20.240781 3.0449219 20.641953 3.0449219 21.001953 C 3.0449219 22.702774 4.0775487 24.067518 5.5449219 25.064453 C 4.7993901 25.323648 4.0140217 25.613868 3.2460938 26.003906 C 1.8297736 26.72327 0.45387485 27.891518 0.025390625 29.779297 A 1.0001 1.0001 0 1 0 1.9746094 30.220703 C 2.2461252 29.024482 3.0086638 28.367996 4.1523438 27.787109 C 5.2960237 27.206223 6.7502642 26.823172 8.0429688 26.289062 A 1.0001 1.0001 0 0 0 8.0644531 26.279297 C 9.3960812 26.740453 10.798158 27 12.023438 27 C 13.718438 27 16.043297 26.460156 17.529297 25.160156 C 17.589297 24.390156 17.749047 23.67 17.998047 23 C 18.208047 22.43 18.477641 21.890156 18.806641 21.410156 C 18.805559 21.408654 18.803824 21.407746 18.802734 21.40625 C 18.871892 21.307455 18.940608 21.208057 19.009766 21.119141 C 19.01136 21.117015 19.014029 21.115407 19.015625 21.113281 C 19.016194 21.115887 19.014974 21.118488 19.015625 21.121094 C 19.045625 21.081094 19.075234 21.041953 19.115234 21.001953 C 19.613234 20.351953 20.242703 19.791563 20.970703 19.351562 C 20.781703 14.462563 19.743359 10.612344 18.068359 8.6523438 C 15.784359 5.8723437 12.133437 5.9939063 12.023438 6.0039062 z M 38 7 C 38.421035 7 38.902 7.0260487 39.398438 7.0683594 C 37.444729 8.9559428 34.178182 12.570118 32.654297 17.017578 C 31.901017 16.26212 31 14.887891 31 12.544922 C 31 9.781261 32.037378 8.6038331 33.427734 7.8691406 C 34.818091 7.1344481 36.66867 7 38 7 z M 41.830078 7.5546875 C 42.083775 7.646138 42.331649 7.7462984 42.564453 7.8691406 C 43.957737 8.6043244 45 9.7822994 45 12.544922 C 45 14.8459 44.131475 16.210089 43.386719 16.974609 C 42.380123 13.834172 40.351749 11.237691 39.337891 10.074219 C 40.472798 8.8005117 41.358028 7.9735929 41.830078 7.5546875 z M 12.126953 8.6054688 C 13.479173 8.6054688 14.463283 9.0785264 15.181641 9.9160156 C 15.899999 10.753505 16.351562 12.01309 16.351562 13.636719 C 16.351562 13.930842 16.191134 15.386346 16.087891 15.816406 C 15.987227 16.23503 15.494505 17.574614 14.751953 18.648438 C 14.009402 19.722261 13.094286 20.478516 12.128906 20.478516 C 11.161525 20.478516 10.246985 19.720265 9.5039062 18.646484 C 9.0183965 17.944902 8.654529 17.151633 8.421875 16.554688 C 8.3263049 16.161877 8.2445084 15.759648 8.1835938 15.351562 C 8.0318463 14.334961 7.9969437 13.352926 7.9960938 12.435547 C 8.1617444 11.383268 8.5428514 10.5333 9.0722656 9.9160156 C 9.790676 9.0783661 10.774837 8.6054687 12.126953 8.6054688 z M 6.0039062 11.583984 C 5.9974567 11.802128 5.9972319 12.034499 5.9960938 12.269531 C 5.934277 12.710275 5.9023438 13.166113 5.9023438 13.636719 C 5.9023438 14.922874 6.0757616 15.679447 6.2207031 16.283203 C 6.2844216 16.548184 6.4010969 16.895246 6.5429688 17.269531 C 6.8464386 18.445598 7.2983802 19.589797 8.0253906 20.566406 C 9.085097 21.989938 10.78571 23 13 23 L 15 23 L 16.740234 23 C 15.972234 24.36 13.679438 25 12.023438 25 C 8.8804375 25 5.0390625 23.151953 5.0390625 21.001953 C 5.0390625 20.631953 5.0295312 20.211953 5.0195312 19.751953 C 4.9647999 17.383651 4.8984444 14.076468 6.0039062 11.583984 z M 18.314453 14.173828 C 18.725976 15.954037 19.005725 18.210305 19.005859 21 L 15.378906 21 C 15.764153 20.619984 16.106833 20.204029 16.396484 19.785156 C 17.322183 18.44648 17.843867 17.070579 18.033203 16.283203 C 18.181054 15.667327 18.273671 14.850182 18.314453 14.173828 z M 25.960938 19.998047 A 1.0001 1.0001 0 0 0 25.943359 20 C 23.891777 20.03722 22.257774 20.627901 21.146484 21.693359 C 20.035195 22.758818 19.514896 24.240437 19.476562 25.804688 C 19.451802 26.839779 19.664917 27.77378 19.917969 28.8125 C 19.63427 29.222752 19.429945 29.726751 19.511719 30.40625 A 1.0001 1.0001 0 0 0 19.511719 30.408203 C 19.605789 31.182754 19.818617 31.771936 20.166016 32.212891 C 20.306874 32.391683 20.511692 32.39485 20.6875 32.509766 C 20.891527 33.292791 21.297638 33.974634 21.75 34.566406 C 22.021535 34.921624 22.297562 35.239051 22.550781 35.496094 C 22.622971 35.569374 22.707468 35.611721 22.769531 35.673828 C 22.774131 36.257678 22.776932 36.793865 22.732422 37.402344 C 22.610111 37.673372 22.315411 37.964203 21.664062 38.271484 C 20.978527 38.594894 20.026598 38.891785 19.027344 39.253906 C 18.02809 39.616028 16.97192 40.047259 16.044922 40.742188 C 15.117924 41.437114 14.328412 42.442943 14.025391 43.779297 A 1.0001 1.0001 0 1 0 15.974609 44.220703 C 16.166588 43.374057 16.594576 42.828745 17.244141 42.341797 C 17.893705 41.854849 18.772488 41.474144 19.708984 41.134766 C 20.645481 40.795387 21.630551 40.498544 22.517578 40.080078 C 23.404605 39.661613 24.280788 39.078843 24.662109 38.058594 A 1.0001 1.0001 0 0 0 24.720703 37.798828 C 24.812483 36.786055 24.779297 36.072863 24.779297 35.230469 A 1.0001 1.0001 0 0 0 24.240234 34.34375 C 24.393933 34.42362 24.164185 34.28225 23.976562 34.091797 C 23.788939 33.901339 23.556731 33.637845 23.337891 33.351562 C 22.900211 32.778998 22.553343 32.045992 22.53125 31.839844 A 1.0001 1.0001 0 0 0 21.736328 30.966797 C 21.690848 30.907957 21.559578 30.686917 21.496094 30.167969 L 21.496094 30.166016 C 21.478115 30.003724 21.515979 29.918781 21.539062 29.884766 A 1.0001 1.0001 0 0 0 21.927734 28.818359 C 21.606752 27.593144 21.453532 26.816366 21.476562 25.853516 C 21.505233 24.683766 21.854289 23.78576 22.53125 23.136719 C 23.206325 22.489485 24.278555 22.033061 25.966797 22 C 27.093198 22.0023 27.704923 22.357877 27.802734 22.529297 A 1.0001 1.0001 0 0 0 28.533203 23.023438 C 29.364822 23.138538 29.751804 23.4608 30.050781 23.957031 C 30.349758 24.453262 30.499255 25.184882 30.490234 25.955078 C 30.475424 27.205037 30.274058 28.149968 30.072266 28.751953 A 1.0001 1.0001 0 0 0 30.445312 29.886719 C 30.46864 29.921973 30.504004 30.004602 30.484375 30.166016 C 30.421445 30.687924 30.291231 30.908388 30.246094 30.966797 A 1.0001 1.0001 0 0 0 29.451172 31.837891 C 29.429372 32.041308 29.078712 32.775036 28.638672 33.347656 C 28.418652 33.633967 28.186813 33.897046 27.998047 34.087891 C 27.809281 34.278735 27.578268 34.42217 27.728516 34.34375 A 1.0001 1.0001 0 0 0 27.191406 35.230469 C 27.191406 36.071065 27.15813 36.784172 27.25 37.796875 A 1.0001 1.0001 0 0 0 27.671875 38.525391 C 28.119122 39.226485 28.765191 39.740815 29.484375 40.080078 C 30.37142 40.498527 31.35459 40.793438 32.291016 41.132812 C 33.227442 41.472189 34.106373 41.852906 34.755859 42.339844 C 35.405346 42.826782 35.833404 43.374022 36.025391 44.220703 A 1.0001 1.0001 0 1 0 37.974609 43.777344 C 37.671596 42.441025 36.881998 41.435171 35.955078 40.740234 C 35.028158 40.045297 33.971855 39.614078 32.972656 39.251953 C 31.973457 38.889828 31.023502 38.59491 30.337891 38.271484 C 29.666693 37.954858 29.347447 37.65497 29.234375 37.376953 C 29.192165 36.781657 29.196402 36.249384 29.201172 35.673828 C 29.263572 35.611708 29.347319 35.569496 29.419922 35.496094 C 29.673874 35.239345 29.951754 34.921471 30.224609 34.566406 C 30.67933 33.974681 31.08603 33.292597 31.291016 32.507812 C 31.46728 32.392877 31.673468 32.391844 31.814453 32.212891 C 32.16231 31.771355 32.377243 31.181315 32.470703 30.40625 L 32.46875 30.40625 C 32.55183 29.723038 32.346241 29.216489 32.058594 28.804688 C 32.269045 28.03521 32.475992 27.180205 32.490234 25.978516 C 32.502214 24.955712 32.333945 23.870347 31.763672 22.923828 C 31.230837 22.039448 30.263386 21.370963 29.041016 21.128906 C 28.284122 20.357011 27.1987 19.998047 25.960938 19.998047 z"/></svg>