<svg xmlns="http://www.w3.org/2000/svg"  viewBox="0 0 24 24" width="50px" height="50px"><path d="M23.5 8h-23C.2236328 8 0 8.2236328 0 8.5v1C0 9.7763672.2236328 10 .5 10h23c.2763672 0 .5-.2236328.5-.5v-1C24 8.2236328 23.7763672 8 23.5 8zM23.5 14h-23C.2236328 14 0 14.2236328 0 14.5v1C0 15.7763672.2236328 16 .5 16h23c.2763672 0 .5-.2236328.5-.5v-1C24 14.2236328 23.7763672 14 23.5 14zM15.5 20h-15C.2236328 20 0 20.2236328 0 20.5v1C0 21.7763672.2236328 22 .5 22h15c.2763672 0 .5-.2236328.5-.5v-1C16 20.2236328 15.7763672 20 15.5 20zM23.5 2h-23C.2236328 2 0 2.2236328 0 2.5v1C0 3.7763672.2236328 4 .5 4h23C23.7763672 4 24 3.7763672 24 3.5v-1C24 2.2236328 23.7763672 2 23.5 2z"/></svg>