<svg xmlns="http://www.w3.org/2000/svg"  viewBox="0 0 40 40" width="50px" height="50px"><path fill="#fff" d="M3.5 3.5H11.5V11.5H3.5z"/><path fill="#788b9c" d="M11,4v7H4V4H11 M12,3H3v9h9V3L12,3z"/><path fill="#fff" d="M11.5 3.5H19.5V11.5H11.5z"/><path fill="#788b9c" d="M19,4v7h-7V4H19 M20,3h-9v9h9V3L20,3z"/><path fill="#fff" d="M19.5 3.5H27.5V11.5H19.5z"/><path fill="#788b9c" d="M27,4v7h-7V4H27 M28,3h-9v9h9V3L28,3z"/><path fill="#fff" d="M27.5 3.5H35.5V11.5H27.5z"/><path fill="#788b9c" d="M35,4v7h-7V4H35 M36,3h-9v9h9V3L36,3z"/><path fill="#fff" d="M3.5 11.5H11.5V19.5H3.5z"/><path fill="#788b9c" d="M11,12v7H4v-7H11 M12,11H3v9h9V11L12,11z"/><path fill="#fff" d="M11.5 11.5H19.5V19.5H11.5z"/><path fill="#788b9c" d="M19,12v7h-7v-7H19 M20,11h-9v9h9V11L20,11z"/><path fill="#fff" d="M19.5 11.5H27.5V19.5H19.5z"/><path fill="#788b9c" d="M27,12v7h-7v-7H27 M28,11h-9v9h9V11L28,11z"/><path fill="#fff" d="M27.5 11.5H35.5V19.5H27.5z"/><path fill="#788b9c" d="M35,12v7h-7v-7H35 M36,11h-9v9h9V11L36,11z"/><g><path fill="#fff" d="M3.5 19.5H11.5V27.5H3.5z"/><path fill="#788b9c" d="M11,20v7H4v-7H11 M12,19H3v9h9V19L12,19z"/></g><g><path fill="#fff" d="M11.5 19.5H19.5V27.5H11.5z"/><path fill="#788b9c" d="M19,20v7h-7v-7H19 M20,19h-9v9h9V19L20,19z"/></g><g><path fill="#fff" d="M19.5 19.5H27.5V27.5H19.5z"/><path fill="#788b9c" d="M27,20v7h-7v-7H27 M28,19h-9v9h9V19L28,19z"/></g><g><path fill="#fff" d="M27.5 19.5H35.5V27.5H27.5z"/><path fill="#788b9c" d="M35,20v7h-7v-7H35 M36,19h-9v9h9V19L36,19z"/></g><g><path fill="#fff" d="M3.5 27.5H11.5V35.5H3.5z"/><path fill="#788b9c" d="M11,28v7H4v-7H11 M12,27H3v9h9V27L12,27z"/></g><g><path fill="#fff" d="M11.5 27.5H19.5V35.5H11.5z"/><path fill="#788b9c" d="M19,28v7h-7v-7H19 M20,27h-9v9h9V27L20,27z"/></g><g><path fill="#fff" d="M19.5 27.5H27.5V35.5H19.5z"/><path fill="#788b9c" d="M27,28v7h-7v-7H27 M28,27h-9v9h9V27L28,27z"/></g><g><path fill="#fff" d="M27.5 27.5H35.5V35.5H27.5z"/><path fill="#788b9c" d="M35,28v7h-7v-7H35 M36,27h-9v9h9V27L36,27z"/></g></svg>