<svg xmlns="http://www.w3.org/2000/svg"  viewBox="0 0 50 50" width="50px" height="50px"><path d="M 28 5 L 28 7 L 41.5625 7 L 28.15625 20.40625 C 25.699219 18.28125 22.496094 17 19 17 C 11.28125 17 5 23.28125 5 31 C 5 38.71875 11.28125 45 19 45 C 26.71875 45 33 38.71875 33 31 C 33 27.503906 31.71875 24.300781 29.59375 21.84375 L 43 8.4375 L 43 22 L 45 22 L 45 5 Z M 19 19 C 22.222656 19 25.160156 20.25 27.3125 22.3125 C 27.316406 22.316406 27.308594 22.339844 27.3125 22.34375 C 27.398438 22.484375 27.515625 22.601563 27.65625 22.6875 C 29.726563 24.84375 31 27.769531 31 31 C 31 37.640625 25.640625 43 19 43 C 12.359375 43 7 37.640625 7 31 C 7 24.359375 12.359375 19 19 19 Z"/></svg>