<svg xmlns="http://www.w3.org/2000/svg"  viewBox="0 0 128 128" width="50px" height="50px"><path d="M19.8 50c.6.6 1.4.9 2.1.9s1.5-.3 2.1-.9c1.2-1.2 1.2-3.1 0-4.2l-17-17V18h18c1.7 0 3-1.3 3-3s-1.3-3-3-3H7c-3.3 0-6 2.7-6 6v10.8c0 1.6.6 3.1 1.8 4.2L19.8 50zM103 12c-1.7 0-3 1.3-3 3s1.3 3 3 3h17.7v10.8l-17 17c-1.2 1.2-1.2 3.1 0 4.2.6.6 1.4.9 2.1.9s1.5-.3 2.1-.9l17-17c1.1-1.1 1.8-2.6 1.8-4.2V18c0-3.3-2.7-6-6-6H103zM95 36.8V7c0-3.3-2.7-6-6-6H39c-3.3 0-6 2.7-6 6v29.8c0 1.6.6 3.1 1.8 4.2l25 25c1.1 1.1 2.6 1.8 4.2 1.8s3.1-.6 4.2-1.8l25-25C94.4 39.9 95 38.4 95 36.8zM89 36.8l-25 25-25-25V7h50V36.8zM19.6 106.6c.2 0 .4.1.6.1 1.4 0 2.7-1 2.9-2.4.3-1.6-.7-3.2-2.4-3.5C12.8 99.1 7 92.1 7 84c0-9.4 7.6-17 17-17 3.3 0 6.4.9 9.1 2.7 1.4.9 3.3.5 4.1-.9.9-1.4.5-3.3-.9-4.1-3.7-2.4-8-3.6-12.4-3.6C11.3 61 1 71.3 1 84 1 95 8.8 104.5 19.6 106.6zM104 61c-4.4 0-8.7 1.3-12.5 3.7-1.4.9-1.8 2.8-.9 4.1.9 1.4 2.8 1.8 4.1.9 2.7-1.8 5.9-2.7 9.2-2.7 9.4 0 17 7.6 17 17 0 8.1-5.8 15.1-13.7 16.7-1.6.3-2.7 1.9-2.4 3.5.3 1.4 1.5 2.4 2.9 2.4.2 0 .4 0 .6-.1C119.2 104.5 127 95 127 84 127 71.3 116.7 61 104 61zM38 100c0 14.3 11.7 26 26 26 14.3 0 26-11.7 26-26S78.3 74 64 74C49.7 74 38 85.7 38 100zM84 100c0 11-9 20-20 20-11 0-20-9-20-20s9-20 20-20C75 80 84 89 84 100z"/></svg>