<svg xmlns="http://www.w3.org/2000/svg" xmlns:xlink="http://www.w3.org/1999/xlink" viewBox="0,0,256,256" width="50px" height="50px" fill-rule="nonzero"><g fill-opacity="0" fill="#000000" fill-rule="nonzero" stroke="none" stroke-width="1" stroke-linecap="butt" stroke-linejoin="miter" stroke-miterlimit="10" stroke-dasharray="" stroke-dashoffset="0" font-family="none" font-weight="none" font-size="none" text-anchor="none" style="mix-blend-mode: normal"><g transform="scale(5.12,5.12)"><path d="M26.9375,1.96875c-0.04297,0.00781 -0.08594,0.01953 -0.125,0.03125c-0.29297,0.05469 -0.54297,0.23828 -0.6875,0.5l-1.125,1.9375l-1.125,-1.9375c-0.20312,-0.36719 -0.61719,-0.56641 -1.03125,-0.5c-0.33203,0.04688 -0.61719,0.25781 -0.76172,0.55859c-0.14453,0.30078 -0.12891,0.65234 0.04297,0.94141l1.71875,2.90625l-3.28125,5.625c-0.33203,0.05078 -0.65234,0.16406 -0.9375,0.3125l-5.75,-9.84375c-0.20312,-0.36719 -0.61719,-0.56641 -1.03125,-0.5c-0.33203,0.04688 -0.61719,0.25781 -0.76172,0.55859c-0.14453,0.30078 -0.12891,0.65234 0.04297,0.94141l6.09375,10.4375c-0.12891,0.33203 -0.21875,0.68359 -0.21875,1.0625v3.625c-5.32031,2.60156 -9,8.0625 -9,14.375c0,8.82422 7.17578,16 16,16c8.82422,0 16,-7.17578 16,-16c0,-6.3125 -3.67969,-11.77344 -9,-14.375v-3.9375c0.00781,-0.25391 -0.08203,-0.5 -0.25,-0.6875l6.125,-10.5c0.27734,-0.48437 0.10938,-1.09766 -0.375,-1.375c-0.48437,-0.27734 -1.09766,-0.10937 -1.375,0.375l-6.71875,11.5h-7.65625l0.15625,-0.28125c0.02344,-0.03125 0.04297,-0.0625 0.0625,-0.09375c0.0625,-0.07422 0.11719,-0.16016 0.15625,-0.25c0.01172,-0.03125 0.02344,-0.0625 0.03125,-0.09375l3.5,-5.96875c0.02344,-0.03125 0.04297,-0.0625 0.0625,-0.09375c0.14063,-0.13672 0.23828,-0.30859 0.28125,-0.5c0.01172,-0.03125 0.02344,-0.0625 0.03125,-0.09375l1.84375,-3.125c0.20313,-0.32031 0.20703,-0.73047 0.00781,-1.05859c-0.19922,-0.32422 -0.56641,-0.50781 -0.94531,-0.47266zM20,16h10v1.8125c-1.57812,-0.51953 -3.25,-0.8125 -5,-0.8125c-1.75,0 -3.42187,0.29297 -5,0.8125zM25,19c1.91016,0 3.74609,0.37109 5.40625,1.0625c0.01172,0.01172 0.01953,0.01953 0.03125,0.03125c0.00781,0.00391 0.02344,-0.00391 0.03125,0c0.07813,0.05469 0.16016,0.09375 0.25,0.125c0.00781,0.00391 0.02344,-0.00391 0.03125,0c0.01953,0.01172 0.04297,0.02344 0.0625,0.03125c4.83984,2.20313 8.1875,7.07813 8.1875,12.75c0,7.74219 -6.25781,14 -14,14c-7.74219,0 -14,-6.25781 -14,-14c0,-5.71875 3.41016,-10.60547 8.3125,-12.78125c0.07813,-0.03125 0.15234,-0.07422 0.21875,-0.125c1.67578,-0.70703 3.53125,-1.09375 5.46875,-1.09375zM25,21c-6.61719,0 -12,5.38281 -12,12c0,6.61719 5.38281,12 12,12c6.61719,0 12,-5.38281 12,-12c0,-6.61719 -5.38281,-12 -12,-12zM25,23c5.53516,0 10,4.46484 10,10c0,5.53516 -4.46484,10 -10,10c-5.53516,0 -10,-4.46484 -10,-10c0,-5.53516 4.46484,-10 10,-10zM22,28v2h2v6h-2v2h6v-2h-2v-6h2v-2z"></path></g></g></svg>